<svg xmlns="http://www.w3.org/2000/svg" viewBox="0 0 300 100"><title>payments_favepay</title><path d="M227.91,83.7c-13.15,0-26.29-.15-39.43.07-5.57.1-8.74-2.86-8.63-8.71.25-13.34.08-26.68.08-40,0-5.36,2.58-7.94,7.92-7.94q39.93,0,79.85,0A10.31,10.31,0,0,1,272,28a5.74,5.74,0,0,1,3.41,5.5c0,14.59,0,29.17,0,43.75a6.26,6.26,0,0,1-6.32,6.37c-4.44.11-8.89,0-13.34,0ZM241,69.7c-.25-.72-.46-1.4-.72-2q-4.57-11.57-9.18-23.11c-1.47-3.71-1.47-3.63-5.45-3.73a2.25,2.25,0,0,0-2.52,1.78c-2,5.18-4.08,10.32-6.12,15.48-1.53,3.87-3,7.74-4.66,11.88a25.41,25.41,0,0,1,3.19,0,2.24,2.24,0,0,0,2.83-1.88c.37-1.38,1.07-2.67,1.47-4,.32-1.11.94-1.36,2-1.34,3.14.06,6.29.11,9.42,0a2,2,0,0,1,2.36,1.71,10.72,10.72,0,0,0,.53,1.47c1.69,4.37,1.69,4.37,6.37,4A2.35,2.35,0,0,0,241,69.7ZM198.58,58.52c2.52,0,4.86.1,7.19,0A8.59,8.59,0,0,0,214,50.35c.39-4.33-2.42-8.54-6.89-9.06s-8.93-.12-13.49-.12V69.82h4.92ZM239.5,40.85c3.1,5,5.92,9.73,8.88,14.34a8.62,8.62,0,0,1,1.53,5.3c-.14,3.11,0,6.23,0,9.33h5a51.47,51.47,0,0,0,0-5.57A16.65,16.65,0,0,1,258.31,52c2.54-3.44,4.58-7.25,7-11.17a23.82,23.82,0,0,1-3.21,0c-1.81-.25-2.81.5-3.66,2.08-1.82,3.38-3.85,6.64-5.92,10.16-2.24-3.84-4.31-7.45-6.46-11a2.52,2.52,0,0,0-1.54-1.15C243,40.75,241.43,40.85,239.5,40.85Z" style="fill:#df2b76"/><path d="M54.45,33.06c3,.53,5.93.9,8.77,1.57s2.69.77,2.21,3.38c-3.22,0-6.39,0-9.55,0-1.41,0-1.83.49-2,1.92-1,11.52-2.06,23-4.64,34.35a23.25,23.25,0,0,1-6.94,12.26c-3.71,3.41-8.17,3.89-12.83,3.2a7.17,7.17,0,0,1-3.52-2c-2.16-2-1.9-3.26.82-4.8.43.61.85,1.24,1.3,1.85,1.93,2.59,4.1,2.68,5.76,0a21.11,21.11,0,0,0,2.82-6.6c1.74-8.77,3.24-17.59,4.72-26.41.58-3.4.88-6.85,1.36-10.68l-8.15,3.21L33,41.13c3.06-1.67,6.09-3.28,9.06-5a2.91,2.91,0,0,0,1.35-1.75c.48-3.23.52-6.54,1.2-9.72A33.41,33.41,0,0,1,47.49,16c3.77-7.18,13.89-7.21,18.76-3.87a9.83,9.83,0,0,1,1.89,1.7c2.39,2.83,2,5.62-1.21,7.56a2.26,2.26,0,0,1-1.6.17c-.87-.25-1.66-.75-2.52-1.06-2.17-.77-3.27-2.12-2.9-4.56.09-.6-.47-1.87-.67-1.86a4.27,4.27,0,0,0-2.58.82,4.47,4.47,0,0,0-1.08,2.65C55.13,22.76,54.81,28,54.45,33.06Z" style="fill:#df2b76"/><path d="M87.11,39.85c.3-2.52,1.88-2.43,3.48-2.05,2.72.63,5.4,1.38,8.14,2.1-2.44,10.3-4.92,20.27-4.56,31.2l5.41-2.46,1.51,3.08c-3.49,3.21-7.28,5.8-12,6.48-3.65.52-5.58-.79-7.15-4.69l-1.65,1.26c-2.52,1.94-5.17,3.63-8.52,3.51a9.91,9.91,0,0,1-9.4-8.3A35.46,35.46,0,0,1,65,46.48c2.14-4.35,5.25-7.84,10.31-8.92a15.68,15.68,0,0,1,9.37,1.22C85.41,39.07,86.11,39.41,87.11,39.85Zm-1.61,3.9c-4.34-2.06-6.71-1.44-8.33,3.17a65.2,65.2,0,0,0-3,12.89,31.57,31.57,0,0,0,.56,8.53,2.59,2.59,0,0,0,3.32,2.24c2.52-.42,3.71-1.46,3.84-3.28.15-2,.25-4,.58-6C83.43,55.47,84.47,49.7,85.5,43.75Z" style="fill:#df2b76"/><path d="M148.48,63.24c.24,1.28.37,2.38.68,3.43,1.15,4,4.21,5.79,8.16,4.49a62.25,62.25,0,0,0,7.38-3.53l1.84,2.52c-4.17,4.18-8.78,7.35-14.72,7.94-9.1.91-14.44-3.63-15.45-12.78A30.55,30.55,0,0,1,137.63,52c3-9,11.71-15.07,20.76-14.65,7.83.36,12,5.74,10.18,13.22A12.66,12.66,0,0,1,162,58.7a32.94,32.94,0,0,1-12.13,4.19A10.65,10.65,0,0,0,148.48,63.24Zm-.14-4.79c6.86-.13,12.31-9.45,9.06-15.17a2.53,2.53,0,0,0-3.87-.82,8,8,0,0,0-2.44,2.95A35,35,0,0,0,148.34,58.45Z" style="fill:#df2b76"/><path d="M104.28,67.94c.37-6.33.68-12.66,1.13-19A11.66,11.66,0,0,0,103,40.89c-.87-1.16-.76-2,.66-2.28a46.88,46.88,0,0,1,8.28-1.22c4.19-.06,6.45,2.1,6.36,6.28A118.49,118.49,0,0,1,117,56.1c-.44,3.37-1.2,6.7-1.53,10.07-.12,1.3.56,2.68.87,4,1.33-.42,2.9-.51,3.93-1.31a22.42,22.42,0,0,0,7.28-10,2.91,2.91,0,0,0-.64-3.39A58.1,58.1,0,0,1,123.09,51a3.24,3.24,0,0,1-.77-2.06A17.48,17.48,0,0,1,127,38.23a3.26,3.26,0,0,1,2.38-.8,6.32,6.32,0,0,1,5.88,6.66,40.8,40.8,0,0,1-14.58,30.73,13.72,13.72,0,0,1-7.58,3.37c-5.12.59-8.47-2.14-8.85-7.31C104.22,69.91,104.28,68.92,104.28,67.94Z" style="fill:#df2b76"/><path d="M241,69.7a2.35,2.35,0,0,1-.48.19c-4.68.35-4.68.35-6.37-4a10.72,10.72,0,0,1-.53-1.47,2,2,0,0,0-2.36-1.71c-3.13.13-6.28.08-9.42,0-1.06,0-1.68.23-2,1.34-.4,1.38-1.1,2.67-1.47,4A2.24,2.24,0,0,1,215.58,70a25.41,25.41,0,0,0-3.19,0c1.62-4.14,3.13-8,4.66-11.88,2-5.16,4.14-10.3,6.12-15.48a2.25,2.25,0,0,1,2.52-1.78c4,.1,4,0,5.45,3.73q4.59,11.55,9.18,23.11C240.58,68.3,240.79,69,241,69.7ZM231.2,58.05c-1.52-4-2.91-7.64-4.52-11.85l-4.47,11.85Z" style="fill:#fefefe"/><path d="M198.58,58.52v11.3h-4.92V41.17c4.56,0,9.08-.4,13.49.12S214.43,46,214,50.35a8.59,8.59,0,0,1-8.27,8.15C203.44,58.62,201.1,58.52,198.58,58.52Zm0-4.3h5.12a9.16,9.16,0,0,0,1.17,0,4.3,4.3,0,0,0,4-4.06,4.11,4.11,0,0,0-3.35-4.61,63.52,63.52,0,0,0-7-.42Z" style="fill:#fefefe"/><path d="M239.5,40.85c1.93,0,3.5-.1,5,0a2.52,2.52,0,0,1,1.54,1.15c2.15,3.56,4.22,7.17,6.46,11,2.07-3.52,4.1-6.78,5.92-10.16.85-1.58,1.85-2.33,3.66-2.08a23.82,23.82,0,0,0,3.21,0c-2.44,3.92-4.48,7.73-7,11.17a16.65,16.65,0,0,0-3.43,12.23,51.47,51.47,0,0,1,0,5.57h-5c0-3.1-.1-6.22,0-9.33a8.62,8.62,0,0,0-1.53-5.3C245.42,50.58,242.6,45.88,239.5,40.85Z" style="fill:#fefefe"/><path d="M231.2,58.05h-9l4.47-11.85C228.29,50.41,229.68,54.08,231.2,58.05Z" style="fill:#df2b76"/><path d="M198.63,54.22V45.08a63.52,63.52,0,0,1,7,.42A4.11,4.11,0,0,1,209,50.11a4.3,4.3,0,0,1-4,4.06,9.16,9.16,0,0,1-1.17,0Z" style="fill:#df2b76"/></svg>