<svg id="Layer_1" data-name="Layer 1" xmlns="http://www.w3.org/2000/svg" viewBox="0 0 201.56 201.57"><defs><style>.cls-1{fill:#fff;}.cls-2{fill:#0d60a8;}.cls-3{fill:#f8d704;}</style></defs><title>touch-n-go-ewallet</title><path class="cls-1" d="M475.27,197.15H365.43A45.91,45.91,0,0,0,319.57,243V352.85a45.91,45.91,0,0,0,45.86,45.86H475.27a45.91,45.91,0,0,0,45.86-45.86V243a45.91,45.91,0,0,0-45.86-45.86" transform="translate(-319.57 -197.15)"/><path class="cls-2" d="M475.61,205H365.09a37.75,37.75,0,0,0-37.7,37.7V353.19a37.75,37.75,0,0,0,37.7,37.7H475.61a37.75,37.75,0,0,0,37.7-37.7V242.67a37.75,37.75,0,0,0-37.7-37.7" transform="translate(-319.57 -197.15)"/><path class="cls-1" d="M401.06,281.93h-9.64c-2.82,0-6.47,2-7.53,4.65l1-5.1H373.09l-5.22,29.31h11.78l3.25-18.55h12.67s-1.62,9.19-2.34,13.31,2.07,5.11,3.45,5.11h6.16l4-22.8c-.33-3.26-2.54-5.93-5.8-5.93" transform="translate(-319.57 -197.15)"/><polygon class="cls-1" points="45.03 84.34 42.83 96.9 51.78 84.34 45.03 84.34"/><polygon class="cls-1" points="59.01 38.41 19.6 38.41 17.89 48.13 31.64 48.13 26.13 79.43 38 79.43 43.54 48.13 57.29 48.13 59.01 38.41"/><path class="cls-1" d="M386.73,267l1.73-9.79H377.9L376.17,267Zm-16.64,9.61a4.85,4.85,0,0,1-4.88-5.94l3-17.14a7.43,7.43,0,0,1,7-5.94h19.32a4.84,4.84,0,0,1,4.87,5.94l-3,17.14a7.42,7.42,0,0,1-7,5.94Z" transform="translate(-319.57 -197.15)"/><path class="cls-1" d="M447.82,267l1.74-9.79h15.29l1.69-9.62H446.87a7.44,7.44,0,0,0-7,5.94l-3,17.14a4.85,4.85,0,0,0,4.9,5.93h19.13l1.68-9.6Z" transform="translate(-319.57 -197.15)"/><path class="cls-1" d="M423.78,267H410.83l3.41-19.41H403.93l-4.05,23.08a4.84,4.84,0,0,0,4.88,5.93h10.06c3.26,0,5.93-1.93,8-4.46,0,0,1.16,3.37,2.81,4.12s6.7.59,6.7.59l5.17-29.26H427.2Z" transform="translate(-319.57 -197.15)"/><path class="cls-1" d="M498.15,247.71h-9.62a7.44,7.44,0,0,0-6.62,4.66l2.77-15.77H473.83l-7.05,40h10.87L480.91,258h11.76s-1.61,9.18-2.33,13.31,2.07,5.11,3.43,5.11H499l4-22.79a4.86,4.86,0,0,0-4.9-5.94" transform="translate(-319.57 -197.15)"/><path class="cls-1" d="M459.47,320.55a6.56,6.56,0,0,1-6.57-8l4.06-23a10,10,0,0,1,9.41-8H491a6.55,6.55,0,0,1,6.58,8l-4.07,23a10,10,0,0,1-9.39,8Zm22.9-10.77,3.1-17.5H468L465,309.78Z" transform="translate(-319.57 -197.15)"/><path class="cls-1" d="M435.64,309.78H418.21l3.08-17.5h28.27l1.86-10.77h-31.8a10,10,0,0,0-9.39,8l-4.07,23a6.55,6.55,0,0,0,6.57,8h24.59a10,10,0,0,0,9.4-8l2.49-14.14H437.63Z" transform="translate(-319.57 -197.15)"/><polygon class="cls-3" points="98.68 141.76 87.36 165.1 80.18 165.1 79.33 150.98 72.47 165.1 65.25 165.1 63.87 141.76 68.98 141.76 69.88 160.07 78.68 141.76 83.88 141.76 84.77 160.07 93.57 141.76 98.68 141.76"/><polygon class="cls-3" points="120.06 165.1 115.07 165.1 120.03 141.77 125.01 141.77 120.06 165.1"/><polygon class="cls-3" points="128.26 165.1 123.26 165.1 128.22 141.77 133.21 141.77 128.26 165.1"/><path class="cls-3" d="M482.31,362.25h-4a9.7,9.7,0,0,1-3.88-.54,2.23,2.23,0,0,1-1.1-2.23,10.74,10.74,0,0,1,.28-2.18l3.9-18.39h5l-1.25,5.81h4.82l-.93,4.22h-4.75L479,355.59a9.21,9.21,0,0,0-.2,1.34c0,.46.15.77.47.89a5.38,5.38,0,0,0,1.88.21h2.11Z" transform="translate(-319.57 -197.15)"/><path class="cls-3" d="M380.32,345.24a9.44,9.44,0,0,0-3.89-.56h-7.14a8,8,0,0,0-4.69,1.15,6.11,6.11,0,0,0-2.17,3.84l-1.58,7.59a10.53,10.53,0,0,0-.24,1.23,6.06,6.06,0,0,0-.08,1,3.13,3.13,0,0,0,.24,1.33,1.83,1.83,0,0,0,.81.82,3.91,3.91,0,0,0,1.54.45,17.07,17.07,0,0,0,2.44.12h12.13l.89-4.17H368.35a5,5,0,0,1-1.88-.23.91.91,0,0,1-.47-.91,7.78,7.78,0,0,1,.16-1.3h13.72l1.26-5.92a11.35,11.35,0,0,0,.28-2.23,2.24,2.24,0,0,0-1.1-2.2M376,351.38h-8.89a6.1,6.1,0,0,1,.39-1.31,2,2,0,0,1,.57-.75,1.75,1.75,0,0,1,.88-.34,10.25,10.25,0,0,1,1.36-.08h4c1.3,0,1.95.4,1.95,1.21,0,.09-.09.51-.24,1.27" transform="translate(-319.57 -197.15)"/><path class="cls-3" d="M433.93,346.09a1.88,1.88,0,0,0-.85-.82,4.49,4.49,0,0,0-1.54-.43,19.48,19.48,0,0,0-2.37-.12H417.08l-.91,4.22h10.24a5.76,5.76,0,0,1,1.88.2.86.86,0,0,1,.46.89,7.09,7.09,0,0,1-.2,1.34h-7.9a20.83,20.83,0,0,0-2.9.18,4.85,4.85,0,0,0-1.94.72,3.52,3.52,0,0,0-1.21,1.5,13.28,13.28,0,0,0-.81,2.55l-.2,1a10.16,10.16,0,0,0-.3,2.19,3,3,0,0,0,.28,1.38,2,2,0,0,0,.85.84,4.45,4.45,0,0,0,1.53.41,19.4,19.4,0,0,0,2.38.13h12.91l2.67-12.58a10.74,10.74,0,0,0,.28-2.19,3.14,3.14,0,0,0-.26-1.39M419.63,358c-.73,0-1.1-.31-1.1-.94a1.45,1.45,0,0,1,.45-1,1.57,1.57,0,0,1,1.18-.47h7.49l-.52,2.45Z" transform="translate(-319.57 -197.15)"/><path class="cls-3" d="M471.48,345.24a9.47,9.47,0,0,0-3.89-.56h-7.14a8,8,0,0,0-4.69,1.15,6.07,6.07,0,0,0-2.17,3.84L452,357.26c-.1.46-.19.87-.25,1.23a9.17,9.17,0,0,0-.06,1,2.85,2.85,0,0,0,.24,1.33,1.83,1.83,0,0,0,.81.82,3.91,3.91,0,0,0,1.54.45,16.92,16.92,0,0,0,2.43.12h12.14l.89-4.17H459.51a5,5,0,0,1-1.88-.23.89.89,0,0,1-.47-.91,7.78,7.78,0,0,1,.16-1.3H471l1.26-5.92a10.73,10.73,0,0,0,.29-2.23,2.26,2.26,0,0,0-1.11-2.2m-4.38,6.14h-8.88a5.63,5.63,0,0,1,.38-1.31,2.1,2.1,0,0,1,.57-.75,1.83,1.83,0,0,1,.89-.34,10.14,10.14,0,0,1,1.36-.08h4c1.29,0,2,.4,2,1.21a12.56,12.56,0,0,1-.25,1.27" transform="translate(-319.57 -197.15)"/></svg>